<svg width="500" height="479" viewBox="0 0 500 479" fill="none" xmlns="http://www.w3.org/2000/svg">
<g filter="url(#filter0_d_1420_29639)">
<rect x="92" y="44" width="108" height="108" rx="24" fill="white"/>
</g>
<g clip-path="url(#clip0_1420_29639)">
<path fill-rule="evenodd" clip-rule="evenodd" d="M146.575 70.6516C140.315 70.6184 134.25 72.8462 129.474 76.9331C124.697 81.0199 121.525 86.6965 120.528 92.9386C119.531 99.1806 120.776 105.577 124.038 110.973C127.3 116.37 132.364 120.411 138.317 122.367C139.638 122.617 140.117 121.8 140.117 121.082C140.117 120.365 140.117 118.797 140.117 116.578C132.817 118.246 131.264 113.025 131.264 113.025C130.776 111.388 129.705 109.992 128.258 109.105C125.88 107.436 128.44 107.436 128.44 107.436C129.271 107.553 130.065 107.86 130.761 108.334C131.456 108.808 132.035 109.437 132.453 110.172C132.81 110.826 133.291 111.403 133.87 111.868C134.448 112.333 135.112 112.678 135.823 112.883C136.534 113.087 137.278 113.148 138.012 113.061C138.746 112.973 139.456 112.74 140.1 112.374C140.209 111.027 140.795 109.766 141.752 108.821C135.955 108.204 129.91 105.935 129.91 95.7753C129.875 93.1409 130.838 90.5925 132.602 88.6519C131.786 86.3882 131.851 83.8959 132.784 81.6786C132.784 81.6786 134.98 80.9613 140.001 84.3979C142.155 83.8086 144.376 83.5057 146.608 83.497C148.839 83.5057 151.06 83.8086 153.214 84.3979C158.152 80.9279 160.349 81.6786 160.349 81.6786C161.317 83.8949 161.412 86.401 160.613 88.6852C162.385 90.6213 163.349 93.1727 163.305 95.8086C163.305 105.985 157.178 108.237 151.331 108.888C151.957 109.53 152.441 110.299 152.748 111.145C153.056 111.991 153.181 112.894 153.115 113.792C153.115 117.346 153.115 120.198 153.115 121.066C153.115 121.933 153.577 122.601 154.915 122.35C160.868 120.394 165.932 116.353 169.194 110.957C172.456 105.56 173.701 99.1639 172.704 92.9219C171.707 86.6798 168.534 81.0032 163.758 76.9164C158.982 72.8296 152.917 70.6017 146.657 70.6349L146.575 70.6516Z" fill="#191717"/>
</g>
<g filter="url(#filter1_d_1420_29639)">
<rect x="205" y="200" width="108" height="108" rx="24" fill="#FF3366"/>
</g>
<path d="M245.581 238C246.467 237.984 247.328 237.707 248.057 237.203C248.786 236.7 249.35 235.993 249.679 235.17C250.008 234.347 250.086 233.446 249.905 232.578C249.723 231.711 249.29 230.917 248.659 230.295C248.028 229.673 247.227 229.251 246.358 229.082C245.488 228.914 244.588 229.005 243.77 229.346C242.952 229.686 242.253 230.261 241.76 230.997C241.268 231.733 241.003 232.599 241 233.484C241.002 234.082 241.122 234.674 241.354 235.225C241.586 235.777 241.924 236.277 242.35 236.696C242.776 237.116 243.281 237.447 243.835 237.671C244.39 237.895 244.983 238.007 245.581 238Z" fill="white"/>
<path d="M235.886 262.187C235.627 263.278 235.491 264.394 235.481 265.514C235.481 269.412 237.641 272 242.228 272C246.034 272 249.119 269.788 251.338 266.214L249.984 271.544H257.55L261.867 254.586C262.946 250.292 265.036 248.062 268.208 248.062C270.704 248.062 272.258 249.583 272.258 252.092C272.265 252.897 272.148 253.699 271.909 254.469L269.683 262.264C269.366 263.337 269.207 264.45 269.212 265.567C269.212 269.267 271.437 271.974 276.093 271.974C280.074 271.974 283.246 269.464 285 263.443L282.032 262.323C280.548 266.35 279.266 267.079 278.253 267.079C277.241 267.079 276.7 266.42 276.7 265.099C276.728 264.402 276.841 263.711 277.037 263.04L279.197 255.446C279.681 253.889 279.931 252.272 279.938 250.645C279.938 244.965 276.43 242 272.179 242C268.199 242 264.15 245.53 262.128 249.215L263.612 242.574H252.077L250.458 248.424H255.865L252.543 261.455C249.933 267.135 245.138 267.229 244.538 267.097C243.549 266.879 242.919 266.508 242.919 265.255C242.948 264.232 243.107 263.217 243.39 262.231L248.437 242.576H235.622L234 248.424H239.329L235.886 262.187Z" fill="white"/>
<g filter="url(#filter2_d_1420_29639)">
<rect x="345" y="348" width="108" height="108" rx="24" fill="white"/>
</g>
<path d="M428.462 396.14C428.457 396.123 428.446 396.108 428.432 396.098C428.418 396.087 428.401 396.08 428.384 396.079C428.364 396.083 428.346 396.094 428.333 396.11C428.321 396.126 428.314 396.146 428.314 396.166C428.437 397.2 428.501 398.24 428.506 399.281C428.536 404.4 427.093 409.42 424.347 413.741C421.601 418.062 417.67 421.502 413.022 423.649C408.375 425.795 403.207 426.559 398.137 425.848C393.067 425.137 388.309 422.981 384.431 419.639L384.37 419.7C382.074 421.691 379.369 423.152 376.445 423.98H376.349H376.279C380.547 428.38 386.032 431.404 392.03 432.665C398.028 433.926 404.266 433.367 409.944 431.059C415.623 428.751 420.482 424.799 423.899 419.711C427.316 414.622 429.135 408.629 429.123 402.5C429.121 400.363 428.899 398.232 428.462 396.14ZM377.193 409.912H377.263C375.302 405.439 374.603 400.513 375.242 395.671C375.882 390.828 377.835 386.253 380.89 382.441C383.945 378.63 387.985 375.727 392.572 374.049C397.16 372.371 402.119 371.98 406.912 372.92C406.931 372.923 406.949 372.919 406.965 372.91C406.981 372.9 406.993 372.885 406.999 372.868C407.002 372.859 407.002 372.849 407.001 372.84C407 372.83 406.997 372.821 406.992 372.813C406.987 372.805 406.981 372.798 406.973 372.792C406.965 372.787 406.956 372.783 406.947 372.781C401.303 371.161 395.314 371.182 389.681 372.841C384.048 374.5 379.004 377.729 375.139 382.149C371.274 386.57 368.748 392 367.856 397.804C366.964 403.608 367.743 409.546 370.102 414.924H370.155L370.216 414.871C372.3 412.93 374.642 411.285 377.176 409.982L377.193 409.912Z" fill="#17202D"/>
<path d="M388.294 402.143C389.86 399.89 391.774 397.315 394.036 394.679C388.268 392.217 382.509 393.809 379.916 394.827C383.335 396.439 386.236 398.973 388.294 402.143V402.143ZM431.794 375.869C430.659 379.682 428.366 383.047 425.234 385.5L425.017 385.683C424.277 386.318 423.112 386.179 422.033 385.335C421.67 385.082 421.366 384.754 421.142 384.372C420.919 383.991 420.78 383.565 420.737 383.125C420.736 382.875 420.793 382.628 420.902 382.403C420.945 382.317 421.004 382.24 421.076 382.177C423.17 380.383 424.967 378.269 426.4 375.913C421.931 376.308 417.584 377.585 413.611 379.671C407.399 382.89 401.327 388.58 396.411 394.174L395.915 394.748C395.741 394.94 395.576 395.14 395.411 395.331C393.15 397.976 391.03 400.737 389.06 403.605C388.894 403.849 388.729 404.092 388.573 404.336C388.416 404.579 388.233 404.849 388.077 405.093C387.415 406.119 386.867 407.05 386.441 407.824L386.806 408.068C387.036 408.236 387.257 408.416 387.468 408.607C387.668 408.799 387.877 409.016 388.085 409.26C388.588 409.839 388.996 410.494 389.295 411.2C389.398 411.456 389.488 411.718 389.564 411.983C389.645 412.269 389.709 412.56 389.756 412.853C389.756 412.905 389.756 412.957 389.756 413.01C390.191 412.949 390.895 412.818 391.818 412.601L392.592 412.418L393.366 412.218L394.036 412.035C393.914 411.731 393.801 411.478 393.714 411.287C393.627 411.096 393.514 410.861 393.514 410.852C393.475 410.767 393.451 410.676 393.445 410.582C393.419 410.471 393.419 410.355 393.445 410.243C393.482 410.145 393.54 410.055 393.615 409.982C393.69 409.908 393.78 409.852 393.88 409.817C394.315 409.651 394.75 409.469 395.167 409.295C398.335 407.946 401.343 406.251 404.137 404.24C404.236 404.164 404.352 404.114 404.476 404.096C404.599 404.078 404.725 404.091 404.842 404.136C404.958 404.18 405.062 404.252 405.144 404.346C405.226 404.44 405.284 404.553 405.311 404.675C405.517 405.613 405.665 406.563 405.755 407.52C406.808 407.007 407.887 406.441 408.983 405.841C417.831 400.943 429.558 391.921 435.674 376.496C434.397 376.181 433.097 375.972 431.785 375.869H431.794ZM405.842 401.152C405.301 401.153 404.772 400.994 404.322 400.695C403.872 400.396 403.52 399.97 403.312 399.471C403.104 398.972 403.049 398.423 403.153 397.892C403.257 397.362 403.517 396.874 403.899 396.491C404.28 396.108 404.767 395.847 405.297 395.741C405.827 395.635 406.377 395.689 406.877 395.895C407.376 396.102 407.804 396.452 408.104 396.901C408.405 397.351 408.565 397.879 408.565 398.42C408.566 398.778 408.497 399.133 408.36 399.464C408.224 399.796 408.024 400.097 407.771 400.351C407.518 400.605 407.217 400.806 406.886 400.943C406.555 401.081 406.2 401.152 405.842 401.152V401.152ZM411.932 396.532C411.391 396.534 410.862 396.375 410.412 396.076C409.962 395.777 409.61 395.35 409.402 394.851C409.194 394.352 409.139 393.803 409.243 393.272C409.347 392.742 409.607 392.254 409.989 391.871C410.37 391.489 410.857 391.227 411.387 391.121C411.917 391.015 412.467 391.069 412.967 391.275C413.466 391.482 413.894 391.832 414.194 392.281C414.495 392.731 414.655 393.259 414.655 393.8C414.656 394.158 414.587 394.513 414.45 394.845C414.314 395.176 414.114 395.477 413.861 395.731C413.608 395.985 413.307 396.186 412.976 396.324C412.645 396.461 412.29 396.532 411.932 396.532V396.532ZM417.77 391.964C417.229 391.966 416.699 391.807 416.249 391.508C415.798 391.208 415.447 390.781 415.239 390.282C415.031 389.782 414.976 389.232 415.081 388.702C415.187 388.171 415.447 387.683 415.829 387.301C416.212 386.918 416.7 386.658 417.23 386.553C417.761 386.448 418.311 386.503 418.811 386.71C419.31 386.918 419.737 387.27 420.036 387.72C420.336 388.171 420.495 388.7 420.493 389.241C420.493 389.963 420.206 390.656 419.695 391.167C419.185 391.677 418.492 391.964 417.77 391.964ZM384.788 411.035C384.627 410.845 384.453 410.668 384.266 410.504C384.07 410.316 383.836 410.174 383.579 410.086L382.952 410.574L383.579 410.086C382.961 409.947 381.073 409.738 377.932 411.252H377.854H377.802C375.266 412.577 372.934 414.258 370.877 416.246C370.854 416.264 370.834 416.284 370.816 416.307H370.764C368.073 418.842 365.586 421.585 363.325 424.511C367.303 424.384 371.252 423.8 375.096 422.771H375.157H375.253C378.173 422.034 380.889 420.645 383.196 418.708H383.248C383.266 418.686 383.287 418.665 383.309 418.647C384.465 417.59 385.331 416.254 385.823 414.767C385.902 414.515 385.971 414.245 386.032 413.975C386.093 413.706 386.128 413.584 386.154 413.384L386.076 413.218C385.757 412.431 385.323 411.695 384.788 411.035V411.035ZM383.309 413.088L382.648 413.619L382.039 414.097C381.526 414.489 380.96 414.906 380.386 415.324L380.316 415.376H380.273C378.533 416.62 376.932 417.76 376.932 417.76C376.932 417.76 378.559 413.784 378.315 413.836C376.053 414.471 373.008 417.081 371.886 418.099L371.834 418.16H371.782L371.451 418.473L371.738 418.073V418.021L371.799 417.951C373.399 415.749 375.32 413.799 377.497 412.166C377.671 412.044 377.854 411.94 378.037 411.835H378.089H378.167C379.375 411.184 380.775 410.984 382.117 411.27C382.396 411.332 382.67 411.416 382.935 411.522C383.185 411.62 383.422 411.748 383.64 411.905C383.875 412.087 383.996 412.261 383.97 412.383C383.796 412.653 383.575 412.888 383.318 413.079L383.309 413.088ZM389.895 413.749C389.898 413.639 389.88 413.53 389.843 413.427C389.869 413.532 389.93 413.619 389.93 413.74L389.895 413.749ZM393.166 413.827C392.971 415.139 392.709 416.44 392.383 417.725C393.438 417.164 394.418 416.472 395.298 415.663C395.071 414.845 394.828 414.088 394.602 413.436L393.166 413.827ZM386.015 410.2C386.609 410.952 387.101 411.78 387.476 412.662C387.697 412.542 387.912 412.411 388.12 412.27C387.839 411.341 387.323 410.499 386.624 409.825L386.015 410.2ZM404.285 408.225C404.233 407.555 404.137 406.867 404.015 406.154C402.165 407.408 400.232 408.536 398.23 409.53C397.908 409.695 397.577 409.852 397.238 410.008C396.658 410.269 396.078 410.521 395.498 410.765L395.15 410.913C395.245 411.113 395.341 411.348 395.454 411.626L395.733 412.314L395.985 413.01C396.142 413.436 396.298 413.88 396.446 414.41C396.533 414.689 396.611 414.976 396.698 415.28C396.785 415.585 396.846 415.846 396.916 416.15C397.329 417.833 397.545 419.559 397.56 421.292C397.56 421.692 397.49 422.092 397.455 422.493C399.544 421.106 401.261 419.229 402.456 417.025C403.652 414.822 404.288 412.358 404.311 409.852C404.311 409.738 404.311 409.634 404.311 409.521C404.311 409.408 404.311 409.199 404.311 409.042C404.311 408.886 404.346 408.486 404.32 408.216L404.285 408.225Z" fill="#17202D"/>
<g filter="url(#filter3_d_1420_29639)">
<rect x="18" y="328" width="108" height="108" rx="24" fill="white"/>
</g>
<path d="M56.1171 389.48C56.1171 392.583 53.661 395.039 50.5585 395.039C47.5854 395.039 45 392.583 45 389.48C45 386.378 47.4561 383.922 50.5585 383.922H56.1171V389.48Z" fill="#E01E5A"/>
<path d="M58.9609 389.48C58.9609 386.378 61.417 383.922 64.5195 383.922C67.6219 383.922 70.078 386.378 70.078 389.48V403.441C70.078 406.544 67.6219 409 64.5195 409C61.417 409 58.9609 406.544 58.9609 403.441V389.48Z" fill="#E01E5A"/>
<path d="M64.5195 367.117C61.417 367.117 58.9609 364.661 58.9609 361.559C58.9609 358.456 61.417 356 64.5195 356C67.6219 356 70.078 358.456 70.078 361.559V367.117H64.5195Z" fill="#36C5F0"/>
<path d="M64.5195 369.961C67.622 369.961 70.078 372.417 70.078 375.52C70.078 378.622 67.622 381.078 64.5195 381.078H50.5585C47.4561 381.078 45 378.622 45 375.52C45 372.417 47.4561 369.961 50.5585 369.961H64.5195Z" fill="#36C5F0"/>
<path d="M86.8828 375.52C86.8828 372.417 89.3389 369.961 92.4413 369.961C95.5438 369.961 97.9999 372.417 97.9999 375.52C97.9999 378.622 95.5438 381.078 92.4413 381.078H86.8828V375.52Z" fill="#2EB67D"/>
<path d="M84.039 375.52C84.039 378.622 81.5829 381.078 78.4804 381.078C75.378 381.078 72.9219 378.622 72.9219 375.52V361.559C72.9219 358.456 75.378 356 78.4804 356C81.5829 356 84.039 358.456 84.039 361.559V375.52Z" fill="#2EB67D"/>
<path d="M78.4804 397.883C81.5829 397.883 84.039 400.339 84.039 403.441C84.039 406.544 81.5829 409 78.4804 409C75.378 409 72.9219 406.544 72.9219 403.441V397.883H78.4804Z" fill="#ECB22E"/>
<path d="M78.4804 395.039C75.378 395.039 72.9219 392.583 72.9219 389.48C72.9219 386.378 75.378 383.922 78.4804 383.922H92.4414C95.5438 383.922 97.9999 386.378 97.9999 389.48C97.9999 392.583 95.5438 395.039 92.4414 395.039H78.4804Z" fill="#ECB22E"/>
<g filter="url(#filter4_d_1420_29639)">
<rect x="374" y="13" width="108" height="108" rx="24" fill="#362D59"/>
</g>
<path d="M431.978 42.2578C431.562 41.5689 430.975 40.9991 430.273 40.6035C429.572 40.2079 428.78 40 427.974 40C427.168 40 426.376 40.2079 425.674 40.6035C424.973 40.9991 424.386 41.5689 423.97 42.2578L417.383 53.5176C422.415 56.025 426.702 59.8025 429.819 64.475C432.936 69.1476 434.775 74.5526 435.151 80.1534H430.527C430.15 75.3525 428.525 70.7328 425.81 66.7515C423.096 62.7702 419.387 59.5653 415.05 57.454L408.954 67.9744C411.392 69.0657 413.516 70.7511 415.13 72.8758C416.745 75.0004 417.798 77.4962 418.194 80.1334H407.573C407.447 80.1245 407.325 80.0845 407.218 80.0169C407.112 79.9493 407.024 79.8563 406.962 79.7463C406.901 79.6362 406.867 79.5126 406.866 79.3866C406.864 79.2606 406.894 79.1361 406.952 79.0244L409.895 74.0289C408.898 73.1986 407.758 72.5555 406.532 72.1307L403.619 77.1261C403.315 77.6453 403.118 78.2194 403.039 78.8152C402.96 79.4109 403.001 80.0164 403.158 80.5964C403.315 81.1765 403.587 81.7195 403.956 82.194C404.326 82.6685 404.786 83.065 405.31 83.3605C406.001 83.749 406.78 83.9553 407.573 83.9599H422.118C422.388 80.633 421.793 77.2928 420.39 74.263C418.987 71.2331 416.823 68.6161 414.109 66.6656L416.422 62.6693C419.847 65.0171 422.599 68.2156 424.407 71.9493C426.216 75.683 427.017 79.8227 426.733 83.9599H439.055C439.342 77.6926 437.976 71.4599 435.094 65.8846C432.211 60.3093 427.913 55.5867 422.628 52.1888L427.303 44.196C427.407 44.0218 427.576 43.8958 427.773 43.8452C427.97 43.7947 428.179 43.8238 428.354 43.9263C428.885 44.216 448.665 78.6647 449.036 79.0644C449.101 79.1811 449.134 79.3131 449.132 79.4467C449.13 79.5804 449.092 79.7112 449.023 79.8257C448.954 79.9403 448.856 80.0346 448.739 80.0992C448.621 80.1637 448.489 80.1962 448.355 80.1934H443.59C443.65 81.4655 443.65 82.7344 443.59 83.9999H448.375C448.983 84.0039 449.585 83.8875 450.147 83.6576C450.71 83.4277 451.221 83.0887 451.651 82.6604C452.081 82.232 452.422 81.7228 452.653 81.1621C452.885 80.6014 453.003 80.0005 453 79.3941C453.001 78.5931 452.786 77.8065 452.379 77.1161L431.978 42.2578Z" fill="white"/>
<defs>
<filter id="filter0_d_1420_29639" x="74" y="31" width="144" height="144" filterUnits="userSpaceOnUse" color-interpolation-filters="sRGB">
<feFlood flood-opacity="0" result="BackgroundImageFix"/>
<feColorMatrix in="SourceAlpha" type="matrix" values="0 0 0 0 0 0 0 0 0 0 0 0 0 0 0 0 0 0 127 0" result="hardAlpha"/>
<feOffset dy="5"/>
<feGaussianBlur stdDeviation="9"/>
<feColorMatrix type="matrix" values="0 0 0 0 0.0352941 0 0 0 0 0.117647 0 0 0 0 0.258824 0 0 0 0.15 0"/>
<feBlend mode="normal" in2="BackgroundImageFix" result="effect1_dropShadow_1420_29639"/>
<feBlend mode="normal" in="SourceGraphic" in2="effect1_dropShadow_1420_29639" result="shape"/>
</filter>
<filter id="filter1_d_1420_29639" x="187" y="187" width="144" height="144" filterUnits="userSpaceOnUse" color-interpolation-filters="sRGB">
<feFlood flood-opacity="0" result="BackgroundImageFix"/>
<feColorMatrix in="SourceAlpha" type="matrix" values="0 0 0 0 0 0 0 0 0 0 0 0 0 0 0 0 0 0 127 0" result="hardAlpha"/>
<feOffset dy="5"/>
<feGaussianBlur stdDeviation="9"/>
<feColorMatrix type="matrix" values="0 0 0 0 0.0352941 0 0 0 0 0.117647 0 0 0 0 0.258824 0 0 0 0.15 0"/>
<feBlend mode="normal" in2="BackgroundImageFix" result="effect1_dropShadow_1420_29639"/>
<feBlend mode="normal" in="SourceGraphic" in2="effect1_dropShadow_1420_29639" result="shape"/>
</filter>
<filter id="filter2_d_1420_29639" x="327" y="335" width="144" height="144" filterUnits="userSpaceOnUse" color-interpolation-filters="sRGB">
<feFlood flood-opacity="0" result="BackgroundImageFix"/>
<feColorMatrix in="SourceAlpha" type="matrix" values="0 0 0 0 0 0 0 0 0 0 0 0 0 0 0 0 0 0 127 0" result="hardAlpha"/>
<feOffset dy="5"/>
<feGaussianBlur stdDeviation="9"/>
<feColorMatrix type="matrix" values="0 0 0 0 0.0352941 0 0 0 0 0.117647 0 0 0 0 0.258824 0 0 0 0.15 0"/>
<feBlend mode="normal" in2="BackgroundImageFix" result="effect1_dropShadow_1420_29639"/>
<feBlend mode="normal" in="SourceGraphic" in2="effect1_dropShadow_1420_29639" result="shape"/>
</filter>
<filter id="filter3_d_1420_29639" x="0" y="315" width="144" height="144" filterUnits="userSpaceOnUse" color-interpolation-filters="sRGB">
<feFlood flood-opacity="0" result="BackgroundImageFix"/>
<feColorMatrix in="SourceAlpha" type="matrix" values="0 0 0 0 0 0 0 0 0 0 0 0 0 0 0 0 0 0 127 0" result="hardAlpha"/>
<feOffset dy="5"/>
<feGaussianBlur stdDeviation="9"/>
<feColorMatrix type="matrix" values="0 0 0 0 0.0352941 0 0 0 0 0.117647 0 0 0 0 0.258824 0 0 0 0.15 0"/>
<feBlend mode="normal" in2="BackgroundImageFix" result="effect1_dropShadow_1420_29639"/>
<feBlend mode="normal" in="SourceGraphic" in2="effect1_dropShadow_1420_29639" result="shape"/>
</filter>
<filter id="filter4_d_1420_29639" x="356" y="0" width="144" height="144" filterUnits="userSpaceOnUse" color-interpolation-filters="sRGB">
<feFlood flood-opacity="0" result="BackgroundImageFix"/>
<feColorMatrix in="SourceAlpha" type="matrix" values="0 0 0 0 0 0 0 0 0 0 0 0 0 0 0 0 0 0 127 0" result="hardAlpha"/>
<feOffset dy="5"/>
<feGaussianBlur stdDeviation="9"/>
<feColorMatrix type="matrix" values="0 0 0 0 0.0352941 0 0 0 0 0.117647 0 0 0 0 0.258824 0 0 0 0.15 0"/>
<feBlend mode="normal" in2="BackgroundImageFix" result="effect1_dropShadow_1420_29639"/>
<feBlend mode="normal" in="SourceGraphic" in2="effect1_dropShadow_1420_29639" result="shape"/>
</filter>
<clipPath id="clip0_1420_29639">
<rect width="53" height="53" fill="white" transform="translate(120 70)"/>
</clipPath>
</defs>
</svg>
